<?xml version="1.0" encoding="UTF-8" standalone="no"?>
<!-- Created with Inkscape (http://www.inkscape.org/) -->

<svg
   version="1.1"
   id="svg1"
   width="1404.3356"
   height="1659.7499"
   viewBox="0 0 1404.3356 1659.7499"
   sodipodi:docname="Logo_A11y.svg"
   inkscape:version="1.3 (0e150ed6c4, 2023-07-21)"
   xmlns:inkscape="http://www.inkscape.org/namespaces/inkscape"
   xmlns:sodipodi="http://sodipodi.sourceforge.net/DTD/sodipodi-0.dtd"
   xmlns="http://www.w3.org/2000/svg"
   xmlns:svg="http://www.w3.org/2000/svg">
  <defs
     id="defs1" />
  <sodipodi:namedview
     id="namedview1"
     pagecolor="#ffffff"
     bordercolor="#000000"
     borderopacity="0.25"
     inkscape:showpageshadow="2"
     inkscape:pageopacity="0.0"
     inkscape:pagecheckerboard="0"
     inkscape:deskcolor="#d1d1d1"
     inkscape:zoom="0.10124954"
     inkscape:cx="286.42105"
     inkscape:cy="474.07621"
     inkscape:window-width="1599"
     inkscape:window-height="1360"
     inkscape:window-x="-7"
     inkscape:window-y="0"
     inkscape:window-maximized="0"
     inkscape:current-layer="g1" />
  <g
     inkscape:groupmode="layer"
     inkscape:label="Image"
     id="g1"
     transform="translate(-264.82073,-403.73761)">
    <path
       style="fill:#000000"
       d="m 695.2913,2057.0257 c -50.20531,-10.0031 -107.43185,-38.3698 -138.48888,-68.6477 -34.85162,-33.9773 -67.31541,-87.7522 -83.43077,-138.1996 -13.6878,-42.8482 -34.16772,-81.4516 -58.71895,-110.6817 -27.4831,-32.7208 -36.67617,-47.5523 -47.07562,-75.9486 -7.04716,-19.2427 -8.02346,-26.4739 -6.83632,-50.6352 0.92657,-18.8582 3.32239,-31.6779 7.23914,-38.7356 5.06977,-9.1353 5.32054,-12.3588 1.87144,-24.0569 -5.9175,-20.0699 -1.82537,-33.928 15.08908,-51.0994 8.01179,-8.1335 14.5669,-15.6352 14.5669,-16.6703 0,-1.0351 -10.12549,-9.6507 -22.50108,-19.1458 -31.69977,-24.3212 -57.60845,-61.2376 -73.2218,-104.3312 -7.94663,-21.933 -7.81907,-52.7478 0.43419,-104.8882 11.4144,-72.1112 7.61436,-112.6697 -16.5942,-177.1134 -16.84363,-44.838 -22.84282,-73.5226 -22.80351,-109.03297 0.027,-24.41759 1.34214,-31.6658 8.33291,-45.9268 10.05808,-20.51824 59.30751,-68.36611 88.56659,-86.04612 38.27486,-23.12786 124.06429,-54.59028 148.85278,-54.59028 14.93137,0 13.64038,7.58145 -4.02853,23.6579 -14.53787,13.2276 -14.53787,13.2276 7.39309,2.6076 12.06203,-5.841 40.41368,-19.22207 63.00367,-29.73571 22.58999,-10.51364 51.24092,-24.73048 63.66873,-31.59298 31.2344,-17.24727 91.79867,-61.25044 148.76203,-108.08353 72.22115,-59.37746 106.92652,-85.4241 153.93783,-115.53149 74.88088,-47.95587 159.72468,-89.01622 215.82218,-104.44764 76.6021,-21.07187 190.5062,-18.84784 277.9306,5.42673 52.6912,14.63041 81.7389,38.1044 118.303,95.60273 52.0589,81.86464 53.7542,89.36123 63.1506,279.25746 3.5084,70.90268 7.6783,89.8807 26.3794,120.05818 18.0755,29.16796 24.4145,52.01622 24.2577,87.43482 -0.2807,63.4253 -22.7554,108.9693 -70.9383,143.7535 -22.9131,16.5414 -30.8631,25.5246 -27.3566,30.9122 1.0474,1.6093 10.7948,6.0042 21.661,9.7665 29.2986,10.1444 41.6411,29.8096 26.4575,42.1549 -5.3218,4.327 -5.5913,6.0898 -2.0229,13.2303 2.2644,4.5309 4.9718,21.6978 6.0165,38.1487 1.0447,16.4508 3.6267,34.0019 5.7378,39.0024 2.1111,5.0005 4.2546,28.7491 4.7635,52.7746 2.066,97.5402 -30.7135,178.9559 -102.3792,254.2828 -17.8512,18.7632 -69.3374,57.1894 -105.7368,78.9156 -28.5366,17.033 -118.5805,60.0034 -148.5356,70.8834 -18.9709,6.8905 -67.4682,30.362 -91.1591,44.1187 -39.1574,22.7377 -60.3513,39.9357 -122.419,99.3384 -79.03717,75.6435 -110.39126,96.0184 -184.00571,119.5729 -68.00698,21.7603 -124.32282,26.1202 -183.94529,14.2408 z m 123.11195,-29.1426 c 34.36011,-8.2768 75.31516,-22.4162 101.87924,-35.1731 33.54135,-16.1076 57.37652,-34.5396 117.61541,-90.9532 96.3294,-90.2124 120.3677,-105.285 266.852,-167.322 126.1398,-53.4209 202.6512,-109.8211 250.6358,-184.7556 19.5093,-30.4664 37.5777,-78.4163 41.8853,-111.1555 2.3751,-18.0519 2.3751,-18.0519 -15.2832,-3.1052 -18.6088,15.7512 -64.9124,59.5631 -135.9478,128.632 -71.1398,69.1705 -141.8304,118.8161 -245.9224,172.7097 -20.1618,10.4388 -54.0013,30.0041 -75.1989,43.4785 -21.1976,13.4743 -51.3862,31.7035 -67.0859,40.5091 -15.6997,8.8057 -62.51806,40.3143 -104.04087,70.0191 -111.37768,79.6779 -140.97738,91.4463 -209.38128,83.2474 -51.67276,-6.1936 -76.90807,-20.904 -146.11141,-85.1726 -39.0157,-36.2336 -89.50744,-75.1888 -120.75377,-93.1635 -13.5795,-7.8117 -14.50987,-7.1671 -7.70128,5.3356 2.54129,4.6666 9.34751,22.499 15.12494,39.6275 17.71254,52.513 50.68759,103.574 87.54574,135.5623 25.3619,22.011 82.98413,48.6055 117.78724,54.3625 43.80525,7.2462 90.98372,6.2581 128.10114,-2.683 z m 6.50808,-113.9237 c 10.90681,-5.2569 39.79046,-23.765 64.1859,-41.1291 69.93145,-49.7754 114.13827,-78.5838 147.85857,-96.3555 17.1684,-9.0482 48.205,-26.2611 68.9703,-38.2508 20.7653,-11.9897 52.4472,-28.1091 70.4042,-35.8209 37.9745,-16.3085 110.3068,-52.626 136.5298,-68.5506 50.5891,-30.7216 106.7702,-78.2826 168.601,-142.7322 19.7565,-20.5933 51.1626,-50.3946 69.7912,-66.2252 38.8895,-33.0482 52.1278,-53.1807 52.1278,-79.2747 0,-24.3973 -21.5399,-45.5577 -59.8919,-58.8369 -10.2237,-3.5399 -21.9155,-8.0416 -25.9817,-10.0037 -7.6312,-3.6825 -9.7202,-10.1396 -4.3078,-13.316 7.0181,-4.1188 79.0149,18.7615 84.2247,26.7663 5.2896,8.1274 7.9787,-0.1541 7.9787,-24.5718 0,-27.3296 0,-27.3296 -22.1792,-34.7332 -42.8729,-14.3113 -56.6903,-27.7982 -56.6681,-55.3128 0.016,-19.42 6.7821,-29.9447 33.0536,-51.4122 28.9037,-23.6183 38.4251,-33.6506 45.9777,-48.4449 10.4141,-20.3994 17.1241,-56.068 14.9399,-79.4162 -2.3801,-25.44183 -6.5835,-37.36452 -20.5508,-58.29175 -24.425,-36.5959 -29.659,-64.67727 -32.4187,-173.93239 -3.5836,-141.86826 -6.3116,-154.16897 -50.8613,-229.33435 -37.2824,-62.90375 -57.0556,-75.33783 -144.5861,-90.92057 -75.145,-13.37781 -167.4993,-7.35126 -224.5216,14.65108 -35.0634,13.52941 -107.5243,51.958 -156.61911,83.06076 -54.50044,34.52735 -93.29096,63.42231 -149.5187,111.37614 -110.67607,94.39007 -165.21422,129.53616 -286.11892,184.38399 -55.80802,25.31704 -81.37748,41.37375 -110.44301,69.35428 -24.48303,23.56908 -41.77459,53.15965 -50.70088,86.76301 -6.84124,25.7541 -4.84953,63.2437 7.12798,134.1684 10.0786,59.6803 9.56055,99.441 -1.95138,149.7694 -8.39375,36.6961 -9.14977,76.6686 -1.88843,99.8462 8.42992,26.9076 21.93061,46.212 56.37969,80.6162 30.03194,29.9928 32.0032,32.7735 33.05124,46.6239 0.61298,8.1008 -0.39372,19.1793 -2.2371,24.6189 -4.88381,14.4113 -29.57358,34.4031 -57.31232,46.4068 -23.8021,10.3003 -24.29842,10.754 -29.31644,26.7998 -6.24956,19.9837 -6.32101,27.7328 -0.44886,48.6785 6.53277,23.302 17.17907,39.8555 46.38902,72.1284 20.67639,22.8445 30.10396,30.5597 48.65101,39.8147 40.74177,20.33 98.14786,59.2892 135.2403,91.782 35.71429,31.2855 70.21073,55.5349 88.93764,62.5189 32.10614,11.9737 79.45656,10.545 108.1021,-3.2619 z m 24.7529,-88.1723 c -13.8031,-6.9068 -9.86188,-12.2178 13.59471,-18.3195 69.79608,-18.156 139.35346,-55.0117 171.16336,-90.6928 8.1401,-9.1308 23.0902,-28.8777 33.2223,-43.882 23.2435,-34.4204 39.3232,-50.9702 72.6238,-74.7467 14.5624,-10.3975 41.0526,-31.7114 58.867,-47.3642 38.1964,-33.5616 57.0381,-45.5394 91.4701,-58.1485 24.5422,-8.9875 58.5029,-12.8472 58.5029,-6.649 0,7.3055 -19.734,20.9915 -48.5004,33.6361 -33.0763,14.5391 -49.3644,25.7638 -86.6708,59.7281 -11.9958,10.9211 -33.4357,28.2848 -47.6443,38.5859 -37.6378,27.287 -48.2997,37.8404 -76.7795,75.9985 -48.0181,64.336 -92.82183,96.3957 -171.5742,122.7718 -35.16405,11.7773 -57.06642,14.6909 -68.27497,9.0823 z m -100.21741,-8.7866 c -10.8432,-3.3467 -33.49763,-8.0967 -50.34319,-10.5556 -30.79353,-4.4948 -40.01678,-8.2212 -40.01678,-16.1679 0,-11.3975 124.6288,2.2628 146.86387,16.0974 9.63799,5.9968 9.54097,6.5578 -2.12475,12.2863 -12.83297,6.3017 -30.31227,5.7681 -54.37915,-1.6602 z m 47.64434,-51.4898 c -2.7108,-0.4528 -18.23628,-2.5689 -34.50107,-4.7024 -33.77257,-4.43 -41.90794,-7.4093 -40.40937,-14.7985 1.52566,-7.5228 15.74571,-9.4037 57.15907,-7.5603 30.94635,1.3775 39.89682,0.6297 59.1447,-4.9412 28.02347,-8.1108 63.67166,-30.0849 98.25389,-60.5652 14.4576,-12.7427 39.5941,-34.1824 55.85889,-47.6437 39.77503,-32.9192 61.88123,-53.127 78.26883,-71.5472 13.6766,-15.373 13.6766,-15.373 -10.9383,0.4227 -13.5382,8.6876 -36.4439,23.1984 -50.9014,32.2463 -28.30491,17.7137 -44.62991,29.8733 -84.99319,63.3065 -61.51131,50.9504 -112.24994,69.9475 -135.68803,50.8031 -13.96161,-11.404 -6.85121,-17.0896 35.18623,-28.1359 22.59486,-5.9373 48.22706,-21.5222 99.61218,-60.5662 49.10345,-37.3103 56.23254,-42.226 89.16861,-61.4848 14.4576,-8.4538 48.5504,-30.1518 75.7618,-48.2178 59.6769,-39.6201 175.7359,-100.0311 196.2653,-102.1598 16.2472,-1.6847 31.9109,3.2002 31.9109,9.9517 0,3.4557 -3.5312,4.7575 -12.9045,4.7575 -8.2485,0 -20.4002,3.7354 -33.6796,10.353 -26.6711,13.2912 -55.5847,31.0814 -47.0616,28.9566 19.0058,-4.7382 39.4074,-8.0267 68.9179,-11.1087 22.6375,-2.3642 38.3894,-5.9366 50.9302,-11.5506 9.9859,-4.4703 23.0903,-9.8361 29.1209,-11.924 10.9647,-3.7963 10.9647,-3.7963 -5.3952,-15.2003 -8.998,-6.2721 -24.2824,-14.6907 -33.9655,-18.708 -36.1836,-15.0115 -35.9127,-14.7762 -15.2452,-13.2444 22.0005,1.6306 50.1409,14.6498 71.6873,33.1661 11.7873,10.1297 13.2129,12.5085 8.5207,14.2183 -3.0993,1.1294 -6.4018,1.3252 -7.339,0.4353 -0.9372,-0.89 -5.3451,1.5862 -9.7953,5.5027 -4.4503,3.9164 -16.1627,10.4385 -26.0277,14.4935 -9.865,4.0549 -17.9615,9.0258 -17.9924,11.0464 -0.1049,6.8711 -16.8983,16.2851 -32.324,18.12 -66.5537,7.9167 -109.4613,20.3435 -140.6321,40.7296 -9.995,6.5368 -32.3009,28.442 -53.3751,52.4162 -35.2867,40.1424 -67.4929,69.3227 -140.49663,127.2963 -45.08386,35.8019 -75.31667,54.6787 -104.66516,65.351 -20.64301,7.5067 -54.11559,12.7115 -67.43705,10.4862 z m -201.95171,-30.5418 c -9.27637,-6.4412 -4.40402,-9.7557 23.5236,-16.0025 14.1007,-3.154 36.72726,-8.3768 50.28125,-11.6061 48.04796,-11.4477 82.14543,-10.5273 82.14543,2.2173 0,9.0855 -12.99302,14.0202 -49.47424,18.7903 -20.67995,2.704 -47.21093,6.1961 -58.95772,7.7601 -29.79582,3.9671 -40.51209,3.7057 -47.51832,-1.1591 z m 241.38152,-123.3735 c -8.1324,-1.2067 -17.76443,-3.7569 -21.40452,-5.6671 -5.0318,-2.6406 -8.06212,-2.4706 -12.64119,0.7089 -6.66654,4.629 -12.96579,3.2833 -24.72066,-5.2811 -4.67825,-3.4084 -13.30241,-5.7092 -21.40011,-5.7092 -10.90171,0 -14.2005,1.3743 -16.80742,7.0022 -9.12215,19.6932 -44.2616,2.3842 -44.30395,-21.8232 -0.0147,-8.4044 -7.0892,-9.1089 -24.01897,-2.3917 -7.69651,3.0537 -12.02568,7.0241 -12.72309,11.6688 -2.47039,16.4524 -21.79865,7.7319 -32.66427,-14.7374 -11.53375,-23.8509 -7.98832,-36.7692 16.82098,-61.2896 6.3252,-6.2515 14.93971,-15.7291 19.14336,-21.0613 8.62859,-10.9451 15.63814,-12.4463 18.47557,-3.957 2.90723,8.6981 -6.34582,26.5575 -22.96697,44.3288 -11.52801,12.3256 -14.42858,17.5011 -12.73835,22.729 3.14625,9.7314 2.88079,9.7031 19.46965,2.0773 11.24488,-5.1691 18.3882,-6.4754 27.68828,-5.0632 12.53364,1.9031 12.53364,1.9031 24.93741,-24.5309 14.8138,-31.57 20.60796,-37.7941 29.461,-31.6469 5.82984,4.048 5.57336,5.5511 -6.2514,36.6372 -14.46503,38.0271 -17.27677,51.0357 -11.73413,54.2886 2.18205,1.2806 4.96283,0.7989 6.17952,-1.0706 3.05961,-4.701 24.79143,-13.0015 34.03971,-13.0015 4.19393,0 13.11313,2.6568 19.82044,5.904 6.70732,3.2473 12.19512,4.595 12.19512,2.995 0,-6.7651 29.95832,-28.9059 55.9752,-41.3687 68.65329,-32.8869 106.75463,-59.9164 164.28872,-116.5485 47.239,-46.4983 63.8541,-57.5406 57.3645,-38.1242 -3.1113,9.3085 -56.214,67.2318 -83.09748,90.6409 -34.1713,29.7551 -97.90318,68.2036 -137.02914,82.6678 -19.71491,7.2883 -19.71491,7.2883 2.26853,7.4408 42.36937,0.2939 98.69569,-24.5546 142.94149,-63.0591 34.4947,-30.0186 65.1534,-49.463 129.1557,-81.9132 61.0469,-30.9517 71.1073,-37.5703 106.3077,-69.9393 32.7578,-30.1227 54.1794,-56.8097 66.0348,-82.2655 6.6692,-14.3202 7.2288,-17.561 3.2804,-18.9998 -6.8293,-2.4885 -5.8674,-8.4802 1.6615,-10.3498 9.0387,-2.2446 11.6913,-23.078 7.1716,-56.3259 -2.0083,-14.7735 -2.9491,-27.5278 -2.0907,-28.343 0.8584,-0.8151 4.8249,5.4044 8.8144,13.8211 5.7593,12.1504 7.2752,21.2491 7.3583,44.1649 0.057,15.874 1.2471,28.8618 2.6436,28.8618 5.1203,0 2.361,8.6782 -3.2111,10.0994 -3.3255,0.8481 -8.132,7.971 -11.3987,16.8918 -7.2559,19.8148 -25.7105,46.7799 -51.143,74.7281 -20.1603,22.1544 -20.1603,22.1544 -7.1666,18.861 9.3838,-2.3784 14.0144,-2.3242 16.6675,0.1952 4.436,4.2124 1.128,10.2727 -5.6073,10.2727 -8.3125,0 -27.8946,10.9688 -63.7486,35.7083 -18.9756,13.0932 -38.1976,24.5533 -42.7156,25.4667 -28.4455,5.751 -89.0018,45.8816 -142.4709,94.4153 -38.48831,34.9356 -48.41324,42.1556 -77.35438,56.2723 -18.26054,8.9071 -38.93226,18.1148 -45.93716,20.4617 -16.76632,5.6173 -44.42091,7.8881 -62.81929,5.1581 z m 29.6897,-139.0427 c 2.64626,-2.4897 27.72995,-18.0622 55.74154,-34.6056 28.01159,-16.5435 60.54117,-36.8233 72.28797,-45.0664 53.98372,-37.8818 101.19762,-54.5535 176.96272,-62.4875 43.2578,-4.5298 50.4017,-8.8294 75.1104,-45.2058 20.2447,-29.8042 36.1696,-47.9266 48.2751,-54.9363 20.8639,-12.0814 20.4509,-4.7069 -0.9465,16.9007 -8.8201,8.9069 -24.2093,28.129 -34.1981,42.7159 -29.23,42.6852 -37.9323,47.8871 -91.9071,54.9386 -20.3143,2.6539 -48.0248,8.3262 -61.5787,12.605 -40.026,12.6358 -57.7526,22.1003 -117.85325,62.9238 -23.36241,15.8689 -82.88251,48.9929 -95.39376,53.0883 -6.14308,2.0108 -15.70128,3.656 -21.24046,3.656 -8.82074,0 -9.47383,-0.562 -5.25986,-4.5267 z m -77.33405,-16.976 c -12.45715,-3.0016 -22.39317,-8.0449 -27.61074,-14.0148 -5.69203,-6.5128 7.00055,-12.2077 42.11782,-18.8975 33.44237,-6.3707 44.05993,-11.3257 90.63906,-42.2991 67.88083,-45.1383 139.51764,-82.3284 227.87084,-118.2985 29.5474,-12.0293 60.9642,-26.2841 69.8152,-31.6775 41.0697,-25.026 46.1526,-52.9735 12.5901,-69.2248 -15.8811,-7.6898 -56.9842,-7.2534 -90.329,0.9589 -29.1918,7.1896 -70.0266,24.8753 -96.5101,41.7991 -19.23289,12.2904 -23.46666,12.2385 -16.4555,-0.2017 9.5686,-16.9779 56.8079,-41.127 104.2606,-53.2989 57.3324,-14.706 104.1877,-10.1716 123.8187,11.9825 11.0153,12.4311 13.2831,22.4365 8.5126,37.5564 -7.2585,23.0056 -25.6158,35.996 -104.2733,73.7878 -77.2096,37.0962 -155.20552,84.2983 -229.69916,139.0109 -50.08701,36.7869 -85.27714,49.9179 -114.74712,42.8172 z m 681.80698,-39.7861 c 0,-1.5318 13.4772,-14.5875 29.9492,-29.0127 24.8092,-21.7263 31.9992,-30.2459 41.8942,-49.6411 12.8955,-25.2767 21.4328,-33.3846 26.7744,-25.4277 4.6788,6.9697 3.9617,13.5417 -3.5611,32.6346 -8.2725,20.9957 -31.8679,46.2671 -56.133,60.1201 -17.9752,10.262 -38.9237,16.358 -38.9237,11.3268 z m -969.31596,-70.2459 c -48.75735,-3.8256 -69.00215,-13.8497 -69.00215,-34.1659 0,-11.0315 8.73287,-12.9773 34.20722,-7.6218 11.00482,2.3135 29.09612,4.9028 40.20291,5.7539 19.91944,1.5265 20.21879,1.4305 22.00536,-7.0521 2.2074,-10.4807 16.42318,-27.0279 29.94842,-34.8601 9.99749,-5.7894 9.99749,-5.7894 -1.50287,-5.7968 -16.86351,-0.011 -59.83786,7.6561 -93.64578,16.7071 -32.54408,8.7127 -40.53545,7.0108 -26.22327,-5.5847 17.26751,-15.1964 86.45343,-29.8595 140.88798,-29.8595 60.53364,0 93.08788,11.5234 131.24399,46.4571 12.39141,11.3449 24.60276,24.4186 27.13633,29.0527 5.24324,9.5902 6.07513,23.1063 1.58436,25.7418 -4.89627,2.8735 -202.79431,3.8999 -236.8425,1.2283 z m 200.35129,-35.4765 c -14.61884,-14.1447 -38.68085,-31.5806 -40.35816,-29.2445 -0.49108,0.6839 -0.3361,9.96 0.3444,20.6135 1.23726,19.37 1.23726,19.37 24.77455,20.4414 12.94551,0.5892 24.95412,1.3503 26.68579,1.6913 1.73167,0.341 -3.41929,-5.7348 -11.44658,-13.5017 z m -65.63279,-7.374 c 0,-10.0426 -2.02143,-17.6258 -5.91579,-22.1928 -5.91579,-6.9374 -5.91579,-6.9374 -31.78371,-1.4724 -21.53598,4.5498 -28.26012,7.5589 -40.15285,17.9686 -7.85672,6.8771 -13.39907,13.3515 -12.31634,14.3877 1.08273,1.0361 17.74742,2.6798 37.03265,3.6526 19.28522,0.9728 39.13024,2.0258 44.10004,2.3401 8.70741,0.5507 9.036,0.017 9.036,-14.6838 z m 713.14176,-32.971 c -5.2641,-6.0232 -2.1491,-10.1383 9.516,-12.5712 5.2581,-1.0967 13.3735,-5.3499 18.0343,-9.4517 11.2061,-9.8619 11.1584,-25.4836 -0.1662,-54.4958 -4.7522,-12.1745 -7.7732,-22.9589 -6.7133,-23.9654 11.9083,-11.3081 39.6928,52.4716 31.6447,72.6408 -9.3068,23.3233 -41.3576,40.3813 -52.3155,27.8433 z m -471.63422,-69.5199 c -11.00832,-1.5233 -86.04061,-16.2064 -131.43268,-25.7202 -35.45014,-7.4301 -56.35561,-7.9242 -69.60985,-1.6454 -5.40754,2.5617 -14.72402,5.5867 -20.7033,6.7222 -10.57584,2.0086 -10.80896,1.8285 -8.57461,-6.6251 9.98324,-37.7715 71.78457,-53.4998 159.67537,-40.6369 41.43833,6.0645 90.82643,5.9465 116.17221,-0.2774 45.30232,-11.1246 95.32368,-40.1662 119.77358,-69.5386 7.0959,-8.5243 20.7132,-30.0011 30.2608,-47.7261 9.5477,-17.72501 21.831,-38.54568 27.2962,-46.26816 19.0665,-26.94107 88.6174,-90.48566 99.0385,-90.48566 4.9339,0 -8.057,16.18115 -32.5651,40.56254 -40.9293,40.71774 -49.187,51.69523 -77.2341,102.67228 -29.1065,52.9026 -43.751,71.3572 -73.4458,92.554 -56.16199,40.0897 -113.58663,55.1913 -183.69978,48.3093 -20.40328,-2.0027 -45.96857,-4.2622 -56.81177,-5.0211 -18.25491,-1.2776 -17.28159,-0.8373 13.14327,5.9455 105.32552,23.4808 147.75853,23.7033 193.8632,1.0165 15.73784,-7.7441 41.25728,-29.9438 126.50398,-110.0472 111.4653,-104.74008 127.1116,-116.70811 152.5781,-116.70811 15.8933,0 12.7322,5.49459 -11.6455,20.24216 -31.9487,19.32768 -39.1914,25.57639 -142.5755,123.00875 -90.7911,85.5643 -100.5204,93.7921 -123.21817,104.2016 -31.54251,14.4659 -71.83739,20.3014 -106.78905,15.4651 z M 718.23156,1093.5591 c 0,-8.5561 17.51156,-26.8562 35.02555,-36.6027 20.80886,-11.5802 83.85536,-33.7206 140.76565,-49.4336 60.98176,-16.83712 94.50981,-28.93628 135.20854,-48.79228 58.4888,-28.53533 77.8926,-40.91851 106.6608,-68.06904 40.1016,-37.84656 42.6209,-39.86197 56.9235,-45.53675 12.8372,-5.09333 12.8372,-5.09333 6.7867,3.75132 -12.2369,17.88797 -63.004,67.68402 -82.144,80.57274 -27.0378,18.20705 -66.7256,39.11521 -105.498,55.578 -31.49446,13.3726 -55.7332,21.33741 -149.1528,49.01121 -63.59726,18.8395 -96.74611,32.2064 -117.70092,47.4617 -26.12474,19.019 -26.87502,19.3556 -26.87502,12.0594 z m -248.10261,-9.6944 c -5.01578,-15.0067 10.79151,-40.4924 25.11512,-40.4924 8.56017,0 7.67045,6.6287 -3.78118,28.1708 -10.17104,19.1331 -17.61947,23.435 -21.33394,12.3216 z m -20.21134,-14.8057 c -7.51933,-4.5434 -8.10481,-23.6823 -1.47007,-48.0556 11.74539,-43.14774 35.32353,-77.58685 63.69792,-93.03955 17.28977,-9.41601 28.65198,-11.94726 28.65198,-6.38303 0,1.65897 -11.15692,15.34882 -24.79317,30.4219 -28.30271,31.28493 -39.3919,51.25328 -46.13652,83.07808 -7.14995,33.7373 -10.60631,39.624 -19.95014,33.9782 z m 905.60249,-33.3619 c -15.4946,-3.9794 -32.6982,-13.0851 -32.6982,-17.3069 0,-4.121 17.0565,-6.8747 40.1747,-6.4861 20.6919,0.3479 22.2281,-0.1028 24.067,-7.0601 2.6187,-9.90767 25.8979,-30.99973 43.9418,-39.8133 19.1717,-9.36444 13.307,-10.55575 -21.4866,-4.36464 -30.2467,5.38205 -61.1827,17.32354 -79.9422,30.85829 -6.2245,4.49088 -12.5086,8.16524 -13.9647,8.16524 -5.6473,0 -2.2404,-12.46135 5.9265,-21.67802 17.518,-19.76958 95.3228,-46.96627 134.3619,-46.96627 25.5543,0 81.6151,20.38478 110.072,40.02426 20.4331,14.10186 46.0015,39.16894 46.0015,45.09964 0,9.9473 -6.1256,17.2272 -17.2254,20.471 -16.0175,4.6811 -220.4677,3.8751 -239.2283,-0.9431 z m 147.5843,-24.8554 c 79.3046,0.085 78.1365,0.9899 32.093,-24.87535 -16.102,-9.0454 -23.3548,-11.23832 -37.1693,-11.23832 -34.0521,0 -64.4986,9.4293 -86.0504,26.64987 -14.5658,11.6386 -13.1717,14.747 5.3114,11.842 8.5842,-1.3491 47.2011,-2.4193 85.8153,-2.3782 z m -795.53167,3.7748 c -6.76595,-3.7241 -13.07428,-9.0825 -14.01852,-11.9076 -1.57434,-4.7103 -3.2526,-4.64411 -20.22734,0.7977 -12.69888,4.071 -22.51831,5.2911 -31.27549,3.8862 -13.51739,-2.1686 -32.25178,-14.80941 -32.25178,-21.76144 0,-2.2786 -1.84827,-4.74886 -4.10727,-5.48946 -2.41176,-0.79069 2.99089,-7.43796 13.0876,-16.10262 23.13097,-19.85021 27.17683,-32.3995 19.55328,-60.64959 -8.22408,-30.47548 -7.30277,-43.64874 4.19313,-59.95497 12.81184,-18.1728 23.45502,-24.56699 79.72728,-47.89836 68.5177,-28.40853 127.5193,-65.06724 219.99986,-136.68969 35.94577,-27.83855 76.81162,-51.24622 99.02012,-56.71801 45.2783,-11.15579 82.7563,9.86024 82.7563,46.40612 0,16.5706 0,16.5706 11.2856,7.16122 35.2882,-29.42174 76.0988,-27.59767 86.0192,3.84471 4.6883,14.85919 -0.9627,33.70367 -18.7484,62.52066 -6.4692,10.4816 -18.4194,33.3156 -26.5561,50.74221 -30.1609,64.59667 -45.0149,76.98836 -111.3588,92.89917 -68.13327,16.33995 -93.10795,28.8438 -173.93445,87.08226 -28.91519,20.83445 -62.9234,42.7564 -75.57379,48.71539 -44.27978,20.8583 -84.59533,25.773 -107.59043,13.1161 z m 54.03417,-12.1093 c 30.62735,-6.02049 64.17742,-24.0098 120.56786,-64.64763 81.13772,-58.47198 108.96548,-72.21399 181.14624,-89.45434 53.4133,-12.75776 69.4051,-26.17873 88.7483,-74.48134 5.5966,-13.9755 17.5789,-40.42216 26.6274,-58.77034 17.9142,-36.32586 19.8313,-50.14172 7.1946,-51.85061 -19.9268,-2.69475 -44.0407,18.52211 -90.4335,79.56902 -53.463,70.35025 -83.3105,89.52842 -157.07651,100.92775 -70.65011,10.91782 -89.58966,18.05857 -152.84625,57.62736 -34.00897,21.27357 -36.96289,23.96598 -48.8096,44.48836 -6.93542,12.01442 -18.32097,27.27348 -25.30123,33.90903 -6.98026,6.63555 -12.74002,12.94736 -12.79947,14.02625 -0.11553,2.09665 13.70318,7.71879 24.53554,9.98219 11.78518,2.4626 20.74708,2.1535 38.44662,-1.3257 z m -90.3755,-36.07907 c 14.26416,-6.4276 24.23583,-19.22726 46.97171,-60.29302 19.34491,-34.94095 37.24831,-55.76892 65.35111,-76.0264 24.89065,-17.94205 34.99709,-23.25091 130.61818,-68.61299 90.3883,-42.87969 126.6923,-62.26393 145.9929,-77.9518 35.9855,-29.2496 37.2624,-48.91716 3.176,-48.91716 -25.7106,0 -62.8589,21.48119 -138.10328,79.85884 -65.27542,50.64334 -130.83688,88.41516 -192.22029,110.74355 -42.35792,15.40782 -63.11774,27.78936 -66.20999,39.48884 -1.20567,4.56164 -0.47887,16.1706 1.61513,25.79769 7.26364,33.39451 2.70175,53.53156 -16.46058,72.66 -12.29877,12.27702 -12.29877,12.27702 -2.32478,10.38277 5.4857,-1.04183 15.20295,-4.25048 21.59389,-7.13032 z M 867.19028,830.86204 c 10.54293,-3.38028 34.20081,-8.27532 52.57307,-10.87787 48.87209,-6.92303 60.56858,-9.87336 81.85535,-20.6472 22.0536,-11.16195 45.655,-34.20279 71.3966,-69.70083 17.9875,-24.80499 17.9875,-24.80499 4.7748,-14.90426 -25.4376,19.06144 -68.1103,42.15529 -155.15276,83.96661 -48.26761,23.1856 -84.80205,41.29026 -81.18765,40.23257 3.6144,-1.05769 15.19767,-4.68875 25.74059,-8.06902 z M 446.80145,1513.7813 c 17.73537,-17.0519 18.91824,-19.0078 13.20137,-21.8293 -3.45374,-1.7045 -20.44181,-16.685 -37.75127,-33.2898 -33.9865,-32.6031 -47.01461,-53.2981 -57.31472,-91.0439 -6.26479,-22.958 -7.12338,-71.1745 -1.71788,-96.4717 2.01684,-9.4386 4.47892,-32.6061 5.4713,-51.4833 1.5742,-29.9448 0.49166,-40.8881 -8.48811,-85.8053 -6.55065,-32.7667 -10.94273,-66.2296 -12.0812,-92.0458 -1.65296,-37.4824 -1.12942,-42.6949 6.89454,-68.64427 4.77583,-15.44496 14.89197,-38.55207 22.48031,-51.34912 16.5939,-27.9841 57.04486,-67.98892 88.45927,-87.48362 12.14907,-7.5393 21.6367,-14.13751 21.08364,-14.6627 -2.02744,-1.92525 -86.49115,30.96141 -105.85332,41.21489 -24.71832,13.08989 -64.48574,47.63449 -75.63663,65.70297 -16.72362,27.0983 -13.6233,69.82388 10.05995,138.63625 7.9872,23.207 16.26293,52.0041 18.3905,63.9935 5.44152,30.6642 4.70399,82.5908 -1.61697,113.8447 -16.38144,80.9978 -15.24294,97.8977 9.84656,146.1626 12.09257,23.2626 21.07284,35.0534 44.43169,58.3374 18.53424,18.4748 29.27592,31.6834 29.27592,35.9993 0,3.9459 -6.39283,12.8867 -15.17817,21.2276 -15.94327,15.1368 -21.81817,25.25 -19.23073,33.1045 0.8529,2.589 2.17942,6.6546 2.94781,9.0345 2.55574,7.9159 40.73528,-12.3907 62.32614,-33.1494 z"
       id="path2" />
  </g>
</svg>
